<mxfile host="app.diagrams.net" modified="2024-03-04T16:11:41.725Z" agent="Mozilla/5.0 (Windows NT 10.0; Win64; x64) AppleWebKit/537.36 (KHTML, like Gecko) Chrome/122.0.0.0 Safari/537.36 Edg/122.0.0.0" etag="c1BexCBVegk67s6YIqbd" version="24.0.1" type="github">
  <diagram name="Page-1" id="RLjTE_xN2Vcb6PbBOY48">
    <mxGraphModel dx="2315" dy="1492" grid="1" gridSize="10" guides="1" tooltips="1" connect="1" arrows="1" fold="1" page="1" pageScale="1" pageWidth="1169" pageHeight="827" math="0" shadow="0">
      <root>
        <mxCell id="0" />
        <mxCell id="1" parent="0" />
        <mxCell id="Yr8gYFt-Sx6U5FNrJJEx-1" value="" style="swimlane;startSize=0;" parent="1" vertex="1">
          <mxGeometry x="600" y="280" width="210" height="200" as="geometry">
            <mxRectangle x="600" y="280" width="50" height="40" as="alternateBounds" />
          </mxGeometry>
        </mxCell>
        <mxCell id="Yr8gYFt-Sx6U5FNrJJEx-9" value="STM32&lt;div&gt;NUCLEO-L476RG&lt;/div&gt;" style="text;strokeColor=none;align=center;fillColor=none;html=1;verticalAlign=middle;whiteSpace=wrap;rounded=0;" parent="Yr8gYFt-Sx6U5FNrJJEx-1" vertex="1">
          <mxGeometry x="50" y="67.5" width="120" height="65" as="geometry" />
        </mxCell>
        <mxCell id="Yr8gYFt-Sx6U5FNrJJEx-14" value="RX" style="text;strokeColor=none;align=center;fillColor=none;html=1;verticalAlign=middle;whiteSpace=wrap;rounded=0;" parent="Yr8gYFt-Sx6U5FNrJJEx-1" vertex="1">
          <mxGeometry x="-15" y="55" width="60" height="30" as="geometry" />
        </mxCell>
        <mxCell id="Yr8gYFt-Sx6U5FNrJJEx-16" value="TX" style="text;strokeColor=none;align=center;fillColor=none;html=1;verticalAlign=middle;whiteSpace=wrap;rounded=0;" parent="Yr8gYFt-Sx6U5FNrJJEx-1" vertex="1">
          <mxGeometry x="-15" y="90" width="60" height="30" as="geometry" />
        </mxCell>
        <mxCell id="Yr8gYFt-Sx6U5FNrJJEx-23" value="RX" style="text;strokeColor=none;align=center;fillColor=none;html=1;verticalAlign=middle;whiteSpace=wrap;rounded=0;" parent="Yr8gYFt-Sx6U5FNrJJEx-1" vertex="1">
          <mxGeometry y="170" width="60" height="30" as="geometry" />
        </mxCell>
        <mxCell id="Yr8gYFt-Sx6U5FNrJJEx-24" value="TX" style="text;strokeColor=none;align=center;fillColor=none;html=1;verticalAlign=middle;whiteSpace=wrap;rounded=0;" parent="Yr8gYFt-Sx6U5FNrJJEx-1" vertex="1">
          <mxGeometry x="30" y="170" width="60" height="30" as="geometry" />
        </mxCell>
        <mxCell id="Yr8gYFt-Sx6U5FNrJJEx-34" value="I&lt;span style=&quot;font-size: 10px;&quot;&gt;&lt;sub&gt;2&lt;/sub&gt;&lt;/span&gt;C" style="text;strokeColor=none;align=center;fillColor=none;html=1;verticalAlign=middle;whiteSpace=wrap;rounded=0;" parent="Yr8gYFt-Sx6U5FNrJJEx-1" vertex="1">
          <mxGeometry x="170" y="10" width="40" height="30" as="geometry" />
        </mxCell>
        <mxCell id="Yr8gYFt-Sx6U5FNrJJEx-51" value="RX" style="text;strokeColor=none;align=center;fillColor=none;html=1;verticalAlign=middle;whiteSpace=wrap;rounded=0;" parent="Yr8gYFt-Sx6U5FNrJJEx-1" vertex="1">
          <mxGeometry x="160" y="170" width="50" height="10" as="geometry" />
        </mxCell>
        <mxCell id="Yr8gYFt-Sx6U5FNrJJEx-52" value="TX" style="text;strokeColor=none;align=center;fillColor=none;html=1;verticalAlign=middle;whiteSpace=wrap;rounded=0;" parent="Yr8gYFt-Sx6U5FNrJJEx-1" vertex="1">
          <mxGeometry x="160" y="150" width="50" height="10" as="geometry" />
        </mxCell>
        <mxCell id="Yr8gYFt-Sx6U5FNrJJEx-82" value="RX" style="text;strokeColor=none;align=center;fillColor=none;html=1;verticalAlign=middle;whiteSpace=wrap;rounded=0;" parent="Yr8gYFt-Sx6U5FNrJJEx-1" vertex="1">
          <mxGeometry x="110" y="180" width="30" height="20" as="geometry" />
        </mxCell>
        <mxCell id="Yr8gYFt-Sx6U5FNrJJEx-83" value="TX" style="text;strokeColor=none;align=center;fillColor=none;html=1;verticalAlign=middle;whiteSpace=wrap;rounded=0;" parent="Yr8gYFt-Sx6U5FNrJJEx-1" vertex="1">
          <mxGeometry x="130" y="180" width="30" height="20" as="geometry" />
        </mxCell>
        <mxCell id="Yr8gYFt-Sx6U5FNrJJEx-2" value="Rpi 4/s&lt;div&gt;(Traitement d&#39;image)&lt;/div&gt;" style="whiteSpace=wrap;html=1;aspect=fixed;" parent="1" vertex="1">
          <mxGeometry x="380" y="300" width="160" height="160" as="geometry" />
        </mxCell>
        <mxCell id="Yr8gYFt-Sx6U5FNrJJEx-5" value="" style="edgeStyle=orthogonalEdgeStyle;rounded=0;orthogonalLoop=1;jettySize=auto;html=1;exitX=0;exitY=0.75;exitDx=0;exitDy=0;" parent="1" edge="1">
          <mxGeometry y="20" relative="1" as="geometry">
            <mxPoint x="599.9999999999998" y="389.9999999999999" as="sourcePoint" />
            <mxPoint x="540" y="390" as="targetPoint" />
            <Array as="points">
              <mxPoint x="590" y="390" />
              <mxPoint x="590" y="390" />
            </Array>
            <mxPoint as="offset" />
          </mxGeometry>
        </mxCell>
        <mxCell id="Yr8gYFt-Sx6U5FNrJJEx-6" value="" style="edgeStyle=orthogonalEdgeStyle;rounded=0;orthogonalLoop=1;jettySize=auto;html=1;" parent="1" edge="1">
          <mxGeometry x="0.5" y="10" relative="1" as="geometry">
            <mxPoint x="560" y="350" as="sourcePoint" />
            <mxPoint x="600" y="350" as="targetPoint" />
            <Array as="points">
              <mxPoint x="540" y="350.6" />
            </Array>
            <mxPoint as="offset" />
          </mxGeometry>
        </mxCell>
        <mxCell id="Yr8gYFt-Sx6U5FNrJJEx-8" style="edgeStyle=orthogonalEdgeStyle;rounded=0;orthogonalLoop=1;jettySize=auto;html=1;exitX=0.5;exitY=1;exitDx=0;exitDy=0;entryX=0.5;entryY=0;entryDx=0;entryDy=0;" parent="1" source="Yr8gYFt-Sx6U5FNrJJEx-7" target="Yr8gYFt-Sx6U5FNrJJEx-2" edge="1">
          <mxGeometry relative="1" as="geometry" />
        </mxCell>
        <mxCell id="Yr8gYFt-Sx6U5FNrJJEx-7" value="5V/4A" style="rounded=0;whiteSpace=wrap;html=1;" parent="1" vertex="1">
          <mxGeometry x="430" y="250" width="60" height="30" as="geometry" />
        </mxCell>
        <mxCell id="Yr8gYFt-Sx6U5FNrJJEx-13" style="edgeStyle=orthogonalEdgeStyle;rounded=0;orthogonalLoop=1;jettySize=auto;html=1;exitX=0.5;exitY=1;exitDx=0;exitDy=0;" parent="1" edge="1">
          <mxGeometry relative="1" as="geometry">
            <mxPoint x="705.5" y="140" as="sourcePoint" />
            <mxPoint x="704.5" y="280" as="targetPoint" />
            <Array as="points">
              <mxPoint x="700" y="140" />
              <mxPoint x="700" y="210" />
              <mxPoint x="705" y="210" />
            </Array>
          </mxGeometry>
        </mxCell>
        <mxCell id="Yr8gYFt-Sx6U5FNrJJEx-12" value="3.3V/100mA" style="rounded=0;whiteSpace=wrap;html=1;" parent="1" vertex="1">
          <mxGeometry x="660" y="105" width="70" height="35" as="geometry" />
        </mxCell>
        <mxCell id="Yr8gYFt-Sx6U5FNrJJEx-15" value="RX" style="text;strokeColor=none;align=center;fillColor=none;html=1;verticalAlign=middle;whiteSpace=wrap;rounded=0;" parent="1" vertex="1">
          <mxGeometry x="500" y="380" width="60" height="20" as="geometry" />
        </mxCell>
        <mxCell id="Yr8gYFt-Sx6U5FNrJJEx-17" value="TX" style="text;strokeColor=none;align=center;fillColor=none;html=1;verticalAlign=middle;whiteSpace=wrap;rounded=0;" parent="1" vertex="1">
          <mxGeometry x="500" y="340" width="60" height="20" as="geometry" />
        </mxCell>
        <mxCell id="Yr8gYFt-Sx6U5FNrJJEx-18" value="ST-LINK" style="rounded=0;whiteSpace=wrap;html=1;" parent="1" vertex="1">
          <mxGeometry x="465" y="550" width="75" height="120" as="geometry" />
        </mxCell>
        <mxCell id="Yr8gYFt-Sx6U5FNrJJEx-20" style="edgeStyle=orthogonalEdgeStyle;rounded=0;orthogonalLoop=1;jettySize=auto;html=1;exitX=0.5;exitY=1;exitDx=0;exitDy=0;" parent="1" source="Yr8gYFt-Sx6U5FNrJJEx-19" target="Yr8gYFt-Sx6U5FNrJJEx-18" edge="1">
          <mxGeometry relative="1" as="geometry" />
        </mxCell>
        <mxCell id="Yr8gYFt-Sx6U5FNrJJEx-19" value="3.3V/0A" style="rounded=0;whiteSpace=wrap;html=1;" parent="1" vertex="1">
          <mxGeometry x="472.5" y="500" width="60" height="30" as="geometry" />
        </mxCell>
        <mxCell id="Yr8gYFt-Sx6U5FNrJJEx-26" style="edgeStyle=orthogonalEdgeStyle;rounded=0;orthogonalLoop=1;jettySize=auto;html=1;exitX=1;exitY=0.5;exitDx=0;exitDy=0;entryX=0.5;entryY=1;entryDx=0;entryDy=0;" parent="1" source="Yr8gYFt-Sx6U5FNrJJEx-21" target="Yr8gYFt-Sx6U5FNrJJEx-23" edge="1">
          <mxGeometry relative="1" as="geometry" />
        </mxCell>
        <mxCell id="Yr8gYFt-Sx6U5FNrJJEx-21" value="TX" style="text;strokeColor=none;align=center;fillColor=none;html=1;verticalAlign=middle;whiteSpace=wrap;rounded=0;" parent="1" vertex="1">
          <mxGeometry x="500" y="550" width="40" height="30" as="geometry" />
        </mxCell>
        <mxCell id="Yr8gYFt-Sx6U5FNrJJEx-22" value="RX" style="text;strokeColor=none;align=center;fillColor=none;html=1;verticalAlign=middle;whiteSpace=wrap;rounded=0;" parent="1" vertex="1">
          <mxGeometry x="500" y="570" width="40" height="30" as="geometry" />
        </mxCell>
        <mxCell id="Yr8gYFt-Sx6U5FNrJJEx-27" style="edgeStyle=orthogonalEdgeStyle;rounded=0;orthogonalLoop=1;jettySize=auto;html=1;exitX=0.5;exitY=1;exitDx=0;exitDy=0;entryX=1;entryY=0.5;entryDx=0;entryDy=0;" parent="1" source="Yr8gYFt-Sx6U5FNrJJEx-24" target="Yr8gYFt-Sx6U5FNrJJEx-22" edge="1">
          <mxGeometry relative="1" as="geometry" />
        </mxCell>
        <mxCell id="Yr8gYFt-Sx6U5FNrJJEx-28" value="" style="endArrow=classic;startArrow=classic;html=1;rounded=0;entryX=0.5;entryY=1;entryDx=0;entryDy=0;" parent="1" edge="1">
          <mxGeometry width="50" height="50" relative="1" as="geometry">
            <mxPoint x="540" y="640" as="sourcePoint" />
            <mxPoint x="679.9999999999998" y="480" as="targetPoint" />
            <Array as="points">
              <mxPoint x="680" y="640" />
            </Array>
          </mxGeometry>
        </mxCell>
        <mxCell id="Yr8gYFt-Sx6U5FNrJJEx-31" value="SWD" style="text;strokeColor=none;align=center;fillColor=none;html=1;verticalAlign=middle;whiteSpace=wrap;rounded=0;" parent="1" vertex="1">
          <mxGeometry x="570" y="610" width="60" height="30" as="geometry" />
        </mxCell>
        <mxCell id="Yr8gYFt-Sx6U5FNrJJEx-32" value="" style="endArrow=classic;html=1;rounded=0;entryX=0.5;entryY=1;entryDx=0;entryDy=0;" parent="1" edge="1">
          <mxGeometry width="50" height="50" relative="1" as="geometry">
            <mxPoint x="540" y="660" as="sourcePoint" />
            <mxPoint x="695" y="480" as="targetPoint" />
            <Array as="points">
              <mxPoint x="695" y="660" />
            </Array>
          </mxGeometry>
        </mxCell>
        <mxCell id="Yr8gYFt-Sx6U5FNrJJEx-33" value="SW CLK" style="text;strokeColor=none;align=center;fillColor=none;html=1;verticalAlign=middle;whiteSpace=wrap;rounded=0;" parent="1" vertex="1">
          <mxGeometry x="570" y="660" width="60" height="30" as="geometry" />
        </mxCell>
        <mxCell id="Yr8gYFt-Sx6U5FNrJJEx-35" value="Afficheur" style="rounded=0;whiteSpace=wrap;html=1;" parent="1" vertex="1">
          <mxGeometry x="880" y="290" width="110" height="30" as="geometry" />
        </mxCell>
        <mxCell id="Yr8gYFt-Sx6U5FNrJJEx-37" value="" style="endArrow=classic;startArrow=classic;html=1;rounded=0;entryX=0;entryY=0.25;entryDx=0;entryDy=0;exitX=1;exitY=0.25;exitDx=0;exitDy=0;" parent="1" source="Yr8gYFt-Sx6U5FNrJJEx-34" target="Yr8gYFt-Sx6U5FNrJJEx-35" edge="1">
          <mxGeometry width="50" height="50" relative="1" as="geometry">
            <mxPoint x="800" y="300" as="sourcePoint" />
            <mxPoint x="850" y="250" as="targetPoint" />
          </mxGeometry>
        </mxCell>
        <mxCell id="Yr8gYFt-Sx6U5FNrJJEx-39" value="" style="endArrow=classic;startArrow=classic;html=1;rounded=0;entryX=0;entryY=0.25;entryDx=0;entryDy=0;exitX=0;exitY=0;exitDx=0;exitDy=0;" parent="1" source="Yr8gYFt-Sx6U5FNrJJEx-41" edge="1">
          <mxGeometry width="50" height="50" relative="1" as="geometry">
            <mxPoint x="800" y="310" as="sourcePoint" />
            <mxPoint x="880" y="310" as="targetPoint" />
          </mxGeometry>
        </mxCell>
        <mxCell id="Yr8gYFt-Sx6U5FNrJJEx-40" value="SCL" style="text;strokeColor=none;align=center;fillColor=none;html=1;verticalAlign=middle;whiteSpace=wrap;rounded=0;" parent="1" vertex="1">
          <mxGeometry x="810" y="280" width="60" height="20" as="geometry" />
        </mxCell>
        <mxCell id="Yr8gYFt-Sx6U5FNrJJEx-41" value="SDA" style="text;strokeColor=none;align=center;fillColor=none;html=1;verticalAlign=middle;whiteSpace=wrap;rounded=0;" parent="1" vertex="1">
          <mxGeometry x="810" y="310" width="60" height="20" as="geometry" />
        </mxCell>
        <mxCell id="Yr8gYFt-Sx6U5FNrJJEx-42" value="Encodeur" style="rounded=0;whiteSpace=wrap;html=1;" parent="1" vertex="1">
          <mxGeometry x="880" y="340" width="110" height="30" as="geometry" />
        </mxCell>
        <mxCell id="Yr8gYFt-Sx6U5FNrJJEx-45" style="edgeStyle=orthogonalEdgeStyle;rounded=0;orthogonalLoop=1;jettySize=auto;html=1;exitX=0;exitY=0.5;exitDx=0;exitDy=0;entryX=1.001;entryY=0.372;entryDx=0;entryDy=0;entryPerimeter=0;" parent="1" edge="1">
          <mxGeometry relative="1" as="geometry">
            <mxPoint x="880" y="355.29" as="sourcePoint" />
            <mxPoint x="810.21" y="354.69" as="targetPoint" />
            <Array as="points">
              <mxPoint x="850" y="355" />
            </Array>
          </mxGeometry>
        </mxCell>
        <mxCell id="Yr8gYFt-Sx6U5FNrJJEx-46" value="A/B/Btn" style="text;strokeColor=none;align=center;fillColor=none;html=1;verticalAlign=middle;whiteSpace=wrap;rounded=0;" parent="1" vertex="1">
          <mxGeometry x="810" y="360" width="60" height="10" as="geometry" />
        </mxCell>
        <mxCell id="Yr8gYFt-Sx6U5FNrJJEx-54" style="edgeStyle=orthogonalEdgeStyle;rounded=0;orthogonalLoop=1;jettySize=auto;html=1;exitX=0;exitY=0.75;exitDx=0;exitDy=0;entryX=1;entryY=0.75;entryDx=0;entryDy=0;" parent="1" source="Yr8gYFt-Sx6U5FNrJJEx-48" target="Yr8gYFt-Sx6U5FNrJJEx-51" edge="1">
          <mxGeometry relative="1" as="geometry" />
        </mxCell>
        <mxCell id="Yr8gYFt-Sx6U5FNrJJEx-48" value="LIDAR" style="rounded=0;whiteSpace=wrap;html=1;" parent="1" vertex="1">
          <mxGeometry x="880" y="420" width="110" height="50" as="geometry" />
        </mxCell>
        <mxCell id="Yr8gYFt-Sx6U5FNrJJEx-55" style="edgeStyle=orthogonalEdgeStyle;rounded=0;orthogonalLoop=1;jettySize=auto;html=1;exitX=1;exitY=0.5;exitDx=0;exitDy=0;entryX=0.005;entryY=0.305;entryDx=0;entryDy=0;entryPerimeter=0;" parent="1" source="Yr8gYFt-Sx6U5FNrJJEx-52" target="Yr8gYFt-Sx6U5FNrJJEx-48" edge="1">
          <mxGeometry relative="1" as="geometry" />
        </mxCell>
        <mxCell id="Yr8gYFt-Sx6U5FNrJJEx-56" value="TX" style="text;strokeColor=none;align=center;fillColor=none;html=1;verticalAlign=middle;whiteSpace=wrap;rounded=0;" parent="1" vertex="1">
          <mxGeometry x="880" y="450" width="30" height="10" as="geometry" />
        </mxCell>
        <mxCell id="Yr8gYFt-Sx6U5FNrJJEx-57" value="RX" style="text;strokeColor=none;align=center;fillColor=none;html=1;verticalAlign=middle;whiteSpace=wrap;rounded=0;" parent="1" vertex="1">
          <mxGeometry x="880" y="430" width="30" height="10" as="geometry" />
        </mxCell>
        <mxCell id="Yr8gYFt-Sx6U5FNrJJEx-59" style="edgeStyle=orthogonalEdgeStyle;rounded=0;orthogonalLoop=1;jettySize=auto;html=1;exitX=0.5;exitY=1;exitDx=0;exitDy=0;entryX=0.5;entryY=0;entryDx=0;entryDy=0;" parent="1" source="Yr8gYFt-Sx6U5FNrJJEx-58" target="Yr8gYFt-Sx6U5FNrJJEx-35" edge="1">
          <mxGeometry relative="1" as="geometry" />
        </mxCell>
        <mxCell id="Yr8gYFt-Sx6U5FNrJJEx-58" value="3.3V/100mA" style="rounded=0;whiteSpace=wrap;html=1;" parent="1" vertex="1">
          <mxGeometry x="900" y="230" width="70" height="30" as="geometry" />
        </mxCell>
        <mxCell id="Yr8gYFt-Sx6U5FNrJJEx-60" style="edgeStyle=orthogonalEdgeStyle;rounded=0;orthogonalLoop=1;jettySize=auto;html=1;exitX=0.75;exitY=1;exitDx=0;exitDy=0;entryX=0.667;entryY=-0.011;entryDx=0;entryDy=0;entryPerimeter=0;" parent="1" source="Yr8gYFt-Sx6U5FNrJJEx-58" target="Yr8gYFt-Sx6U5FNrJJEx-42" edge="1">
          <mxGeometry relative="1" as="geometry" />
        </mxCell>
        <mxCell id="Yr8gYFt-Sx6U5FNrJJEx-62" style="edgeStyle=orthogonalEdgeStyle;rounded=0;orthogonalLoop=1;jettySize=auto;html=1;exitX=0.5;exitY=1;exitDx=0;exitDy=0;entryX=0.5;entryY=0;entryDx=0;entryDy=0;" parent="1" source="Yr8gYFt-Sx6U5FNrJJEx-61" target="Yr8gYFt-Sx6U5FNrJJEx-48" edge="1">
          <mxGeometry relative="1" as="geometry" />
        </mxCell>
        <mxCell id="Yr8gYFt-Sx6U5FNrJJEx-61" value="5V/1A" style="rounded=0;whiteSpace=wrap;html=1;" parent="1" vertex="1">
          <mxGeometry x="905" y="380" width="60" height="30" as="geometry" />
        </mxCell>
        <mxCell id="Yr8gYFt-Sx6U5FNrJJEx-68" style="edgeStyle=orthogonalEdgeStyle;rounded=0;orthogonalLoop=1;jettySize=auto;html=1;exitX=1;exitY=0.5;exitDx=0;exitDy=0;entryX=0;entryY=0.5;entryDx=0;entryDy=0;" parent="1" source="Yr8gYFt-Sx6U5FNrJJEx-63" target="Yr8gYFt-Sx6U5FNrJJEx-2" edge="1">
          <mxGeometry relative="1" as="geometry" />
        </mxCell>
        <mxCell id="Yr8gYFt-Sx6U5FNrJJEx-63" value="" style="swimlane;startSize=0;" parent="1" vertex="1">
          <mxGeometry x="200" y="340" width="120" height="80" as="geometry" />
        </mxCell>
        <mxCell id="Yr8gYFt-Sx6U5FNrJJEx-67" value="Caméra V2" style="text;strokeColor=none;align=center;fillColor=none;html=1;verticalAlign=middle;whiteSpace=wrap;rounded=0;" parent="Yr8gYFt-Sx6U5FNrJJEx-63" vertex="1">
          <mxGeometry x="30" y="30" width="60" height="30" as="geometry" />
        </mxCell>
        <mxCell id="Yr8gYFt-Sx6U5FNrJJEx-70" value="TMC 2225" style="whiteSpace=wrap;html=1;aspect=fixed;" parent="1" vertex="1">
          <mxGeometry x="910" y="550" width="95" height="95" as="geometry" />
        </mxCell>
        <mxCell id="Yr8gYFt-Sx6U5FNrJJEx-71" value="" style="endArrow=classic;html=1;rounded=0;entryX=0;entryY=0.75;entryDx=0;entryDy=0;" parent="1" edge="1">
          <mxGeometry width="50" height="50" relative="1" as="geometry">
            <mxPoint x="760" y="480" as="sourcePoint" />
            <mxPoint x="910" y="598.06" as="targetPoint" />
            <Array as="points">
              <mxPoint x="760" y="596.81" />
            </Array>
          </mxGeometry>
        </mxCell>
        <mxCell id="Yr8gYFt-Sx6U5FNrJJEx-72" value="" style="endArrow=classic;html=1;rounded=0;entryX=-0.014;entryY=0.371;entryDx=0;entryDy=0;entryPerimeter=0;exitX=0.864;exitY=1.001;exitDx=0;exitDy=0;exitPerimeter=0;" parent="1" source="Yr8gYFt-Sx6U5FNrJJEx-1" edge="1">
          <mxGeometry width="50" height="50" relative="1" as="geometry">
            <mxPoint x="780" y="480" as="sourcePoint" />
            <mxPoint x="910.0000000000001" y="569.995" as="targetPoint" />
            <Array as="points">
              <mxPoint x="781.33" y="569.75" />
            </Array>
          </mxGeometry>
        </mxCell>
        <mxCell id="Yr8gYFt-Sx6U5FNrJJEx-73" value="2x PWM STEP" style="text;strokeColor=none;align=center;fillColor=none;html=1;verticalAlign=middle;whiteSpace=wrap;rounded=0;" parent="1" vertex="1">
          <mxGeometry x="810" y="550" width="90" height="20" as="geometry" />
        </mxCell>
        <mxCell id="Yr8gYFt-Sx6U5FNrJJEx-74" value="2x GPIO DIR" style="text;strokeColor=none;align=center;fillColor=none;html=1;verticalAlign=middle;whiteSpace=wrap;rounded=0;" parent="1" vertex="1">
          <mxGeometry x="810" y="580" width="90" height="10" as="geometry" />
        </mxCell>
        <mxCell id="Yr8gYFt-Sx6U5FNrJJEx-75" value="7.2V" style="rounded=0;whiteSpace=wrap;html=1;" parent="1" vertex="1">
          <mxGeometry x="910" y="490" width="35" height="30" as="geometry" />
        </mxCell>
        <mxCell id="Yr8gYFt-Sx6U5FNrJJEx-76" value="3.3V/30mA" style="rounded=0;whiteSpace=wrap;html=1;" parent="1" vertex="1">
          <mxGeometry x="960" y="490" width="60" height="30" as="geometry" />
        </mxCell>
        <mxCell id="Yr8gYFt-Sx6U5FNrJJEx-77" style="edgeStyle=orthogonalEdgeStyle;rounded=0;orthogonalLoop=1;jettySize=auto;html=1;exitX=0.5;exitY=1;exitDx=0;exitDy=0;entryX=0.185;entryY=0.008;entryDx=0;entryDy=0;entryPerimeter=0;" parent="1" source="Yr8gYFt-Sx6U5FNrJJEx-75" target="Yr8gYFt-Sx6U5FNrJJEx-70" edge="1">
          <mxGeometry relative="1" as="geometry" />
        </mxCell>
        <mxCell id="Yr8gYFt-Sx6U5FNrJJEx-78" style="edgeStyle=orthogonalEdgeStyle;rounded=0;orthogonalLoop=1;jettySize=auto;html=1;exitX=0.25;exitY=1;exitDx=0;exitDy=0;entryX=0.828;entryY=0.013;entryDx=0;entryDy=0;entryPerimeter=0;" parent="1" source="Yr8gYFt-Sx6U5FNrJJEx-76" target="Yr8gYFt-Sx6U5FNrJJEx-70" edge="1">
          <mxGeometry relative="1" as="geometry" />
        </mxCell>
        <mxCell id="Yr8gYFt-Sx6U5FNrJJEx-79" value="x2" style="text;strokeColor=none;align=center;fillColor=none;html=1;verticalAlign=middle;whiteSpace=wrap;rounded=0;" parent="1" vertex="1">
          <mxGeometry x="930" y="530" width="10" height="10" as="geometry" />
        </mxCell>
        <mxCell id="Yr8gYFt-Sx6U5FNrJJEx-80" value="UART" style="text;strokeColor=none;align=center;fillColor=none;html=1;verticalAlign=middle;whiteSpace=wrap;rounded=0;" parent="1" vertex="1">
          <mxGeometry x="540" y="390" width="60" height="30" as="geometry" />
        </mxCell>
        <mxCell id="Yr8gYFt-Sx6U5FNrJJEx-81" value="UART" style="text;strokeColor=none;align=center;fillColor=none;html=1;verticalAlign=middle;whiteSpace=wrap;rounded=0;" parent="1" vertex="1">
          <mxGeometry x="540" y="320" width="60" height="30" as="geometry" />
        </mxCell>
        <mxCell id="Yr8gYFt-Sx6U5FNrJJEx-85" value="RX" style="text;strokeColor=none;align=center;fillColor=none;html=1;verticalAlign=middle;whiteSpace=wrap;rounded=0;" parent="1" vertex="1">
          <mxGeometry x="910" y="610" width="25" height="10" as="geometry" />
        </mxCell>
        <mxCell id="Yr8gYFt-Sx6U5FNrJJEx-88" style="edgeStyle=orthogonalEdgeStyle;rounded=0;orthogonalLoop=1;jettySize=auto;html=1;exitX=0;exitY=0.5;exitDx=0;exitDy=0;entryX=0.5;entryY=1;entryDx=0;entryDy=0;" parent="1" source="Yr8gYFt-Sx6U5FNrJJEx-86" target="Yr8gYFt-Sx6U5FNrJJEx-82" edge="1">
          <mxGeometry relative="1" as="geometry" />
        </mxCell>
        <mxCell id="Yr8gYFt-Sx6U5FNrJJEx-86" value="TX" style="text;strokeColor=none;align=center;fillColor=none;html=1;verticalAlign=middle;whiteSpace=wrap;rounded=0;" parent="1" vertex="1">
          <mxGeometry x="910" y="630" width="25" height="10" as="geometry" />
        </mxCell>
        <mxCell id="Yr8gYFt-Sx6U5FNrJJEx-87" style="edgeStyle=orthogonalEdgeStyle;rounded=0;orthogonalLoop=1;jettySize=auto;html=1;exitX=0.5;exitY=1;exitDx=0;exitDy=0;entryX=0.006;entryY=0.682;entryDx=0;entryDy=0;entryPerimeter=0;" parent="1" source="Yr8gYFt-Sx6U5FNrJJEx-83" target="Yr8gYFt-Sx6U5FNrJJEx-70" edge="1">
          <mxGeometry relative="1" as="geometry" />
        </mxCell>
        <mxCell id="Yr8gYFt-Sx6U5FNrJJEx-90" value="UART x2" style="text;strokeColor=none;align=center;fillColor=none;html=1;verticalAlign=middle;whiteSpace=wrap;rounded=0;" parent="1" vertex="1">
          <mxGeometry x="770" y="640" width="60" height="10" as="geometry" />
        </mxCell>
        <mxCell id="Yr8gYFt-Sx6U5FNrJJEx-92" value="UART x2" style="text;strokeColor=none;align=center;fillColor=none;html=1;verticalAlign=middle;whiteSpace=wrap;rounded=0;" parent="1" vertex="1">
          <mxGeometry x="770" y="620" width="60" height="10" as="geometry" />
        </mxCell>
        <mxCell id="O1cx99DbSrKtWBEjcAzs-1" value="UART" style="text;strokeColor=none;align=center;fillColor=none;html=1;verticalAlign=middle;whiteSpace=wrap;rounded=0;" parent="1" vertex="1">
          <mxGeometry x="810" y="410" width="60" height="30" as="geometry" />
        </mxCell>
        <mxCell id="O1cx99DbSrKtWBEjcAzs-2" value="UART" style="text;strokeColor=none;align=center;fillColor=none;html=1;verticalAlign=middle;whiteSpace=wrap;rounded=0;" parent="1" vertex="1">
          <mxGeometry x="810" y="450" width="60" height="30" as="geometry" />
        </mxCell>
        <mxCell id="O1cx99DbSrKtWBEjcAzs-4" value="Moteur 1" style="whiteSpace=wrap;html=1;aspect=fixed;" parent="1" vertex="1">
          <mxGeometry x="1060" y="542" width="50" height="50" as="geometry" />
        </mxCell>
        <mxCell id="O1cx99DbSrKtWBEjcAzs-5" value="Moteur 2" style="whiteSpace=wrap;html=1;aspect=fixed;" parent="1" vertex="1">
          <mxGeometry x="1060" y="603" width="50" height="50" as="geometry" />
        </mxCell>
        <mxCell id="O1cx99DbSrKtWBEjcAzs-8" value="" style="endArrow=none;html=1;rounded=0;entryX=0;entryY=0.4;entryDx=0;entryDy=0;entryPerimeter=0;exitX=0.996;exitY=0.107;exitDx=0;exitDy=0;exitPerimeter=0;" parent="1" edge="1">
          <mxGeometry width="50" height="50" relative="1" as="geometry">
            <mxPoint x="1005" y="564.93" as="sourcePoint" />
            <mxPoint x="1060" y="564.93" as="targetPoint" />
          </mxGeometry>
        </mxCell>
        <mxCell id="O1cx99DbSrKtWBEjcAzs-9" value="" style="endArrow=none;html=1;rounded=0;entryX=0;entryY=0.4;entryDx=0;entryDy=0;entryPerimeter=0;exitX=0.996;exitY=0.107;exitDx=0;exitDy=0;exitPerimeter=0;" parent="1" edge="1">
          <mxGeometry width="50" height="50" relative="1" as="geometry">
            <mxPoint x="1005" y="570" as="sourcePoint" />
            <mxPoint x="1060" y="570" as="targetPoint" />
          </mxGeometry>
        </mxCell>
        <mxCell id="O1cx99DbSrKtWBEjcAzs-10" value="" style="endArrow=none;html=1;rounded=0;entryX=0;entryY=0.4;entryDx=0;entryDy=0;entryPerimeter=0;exitX=0.996;exitY=0.107;exitDx=0;exitDy=0;exitPerimeter=0;" parent="1" edge="1">
          <mxGeometry width="50" height="50" relative="1" as="geometry">
            <mxPoint x="1005" y="574.87" as="sourcePoint" />
            <mxPoint x="1060" y="574.87" as="targetPoint" />
          </mxGeometry>
        </mxCell>
        <mxCell id="O1cx99DbSrKtWBEjcAzs-11" value="" style="endArrow=none;html=1;rounded=0;entryX=0;entryY=0.4;entryDx=0;entryDy=0;entryPerimeter=0;exitX=0.996;exitY=0.107;exitDx=0;exitDy=0;exitPerimeter=0;" parent="1" edge="1">
          <mxGeometry width="50" height="50" relative="1" as="geometry">
            <mxPoint x="1005" y="559.93" as="sourcePoint" />
            <mxPoint x="1060" y="559.93" as="targetPoint" />
          </mxGeometry>
        </mxCell>
        <mxCell id="O1cx99DbSrKtWBEjcAzs-12" value="" style="endArrow=none;html=1;rounded=0;entryX=0;entryY=0.4;entryDx=0;entryDy=0;entryPerimeter=0;exitX=0.996;exitY=0.107;exitDx=0;exitDy=0;exitPerimeter=0;" parent="1" edge="1">
          <mxGeometry width="50" height="50" relative="1" as="geometry">
            <mxPoint x="1005" y="624.9999999999999" as="sourcePoint" />
            <mxPoint x="1060" y="624.9999999999999" as="targetPoint" />
          </mxGeometry>
        </mxCell>
        <mxCell id="O1cx99DbSrKtWBEjcAzs-13" value="" style="endArrow=none;html=1;rounded=0;entryX=0;entryY=0.4;entryDx=0;entryDy=0;entryPerimeter=0;exitX=0.996;exitY=0.107;exitDx=0;exitDy=0;exitPerimeter=0;" parent="1" edge="1">
          <mxGeometry width="50" height="50" relative="1" as="geometry">
            <mxPoint x="1005" y="630.0699999999999" as="sourcePoint" />
            <mxPoint x="1060" y="630.0699999999999" as="targetPoint" />
          </mxGeometry>
        </mxCell>
        <mxCell id="O1cx99DbSrKtWBEjcAzs-14" value="" style="endArrow=none;html=1;rounded=0;entryX=0;entryY=0.4;entryDx=0;entryDy=0;entryPerimeter=0;exitX=0.996;exitY=0.107;exitDx=0;exitDy=0;exitPerimeter=0;" parent="1" edge="1">
          <mxGeometry width="50" height="50" relative="1" as="geometry">
            <mxPoint x="1005" y="634.9399999999999" as="sourcePoint" />
            <mxPoint x="1060" y="634.9399999999999" as="targetPoint" />
          </mxGeometry>
        </mxCell>
        <mxCell id="O1cx99DbSrKtWBEjcAzs-15" value="" style="endArrow=none;html=1;rounded=0;entryX=0;entryY=0.4;entryDx=0;entryDy=0;entryPerimeter=0;exitX=0.996;exitY=0.107;exitDx=0;exitDy=0;exitPerimeter=0;" parent="1" edge="1">
          <mxGeometry width="50" height="50" relative="1" as="geometry">
            <mxPoint x="1005" y="619.9999999999999" as="sourcePoint" />
            <mxPoint x="1060" y="619.9999999999999" as="targetPoint" />
          </mxGeometry>
        </mxCell>
        <mxCell id="O7Gu6RK9Ui9EUtk0Qwvg-1" value="433" style="rounded=0;whiteSpace=wrap;html=1;" vertex="1" parent="1">
          <mxGeometry x="710" y="180" width="120" height="60" as="geometry" />
        </mxCell>
        <mxCell id="O7Gu6RK9Ui9EUtk0Qwvg-2" value="Arret d&#39;urgence" style="rounded=0;whiteSpace=wrap;html=1;" vertex="1" parent="1">
          <mxGeometry x="570" y="180" width="120" height="60" as="geometry" />
        </mxCell>
        <mxCell id="O7Gu6RK9Ui9EUtk0Qwvg-5" value="" style="endArrow=classic;html=1;rounded=0;exitX=0.5;exitY=1;exitDx=0;exitDy=0;" edge="1" parent="1" source="O7Gu6RK9Ui9EUtk0Qwvg-2">
          <mxGeometry width="50" height="50" relative="1" as="geometry">
            <mxPoint x="560" y="470" as="sourcePoint" />
            <mxPoint x="630" y="280" as="targetPoint" />
          </mxGeometry>
        </mxCell>
        <mxCell id="O7Gu6RK9Ui9EUtk0Qwvg-6" value="" style="endArrow=classic;html=1;rounded=0;exitX=0.5;exitY=1;exitDx=0;exitDy=0;entryX=0.81;entryY=0;entryDx=0;entryDy=0;entryPerimeter=0;" edge="1" parent="1" source="O7Gu6RK9Ui9EUtk0Qwvg-1" target="Yr8gYFt-Sx6U5FNrJJEx-1">
          <mxGeometry width="50" height="50" relative="1" as="geometry">
            <mxPoint x="560" y="470" as="sourcePoint" />
            <mxPoint x="770" y="270" as="targetPoint" />
          </mxGeometry>
        </mxCell>
        <mxCell id="O7Gu6RK9Ui9EUtk0Qwvg-8" value="" style="endArrow=classic;html=1;rounded=0;entryX=0.4;entryY=0.989;entryDx=0;entryDy=0;exitX=0.75;exitY=0;exitDx=0;exitDy=0;entryPerimeter=0;" edge="1" parent="1" source="Yr8gYFt-Sx6U5FNrJJEx-1" target="O7Gu6RK9Ui9EUtk0Qwvg-1">
          <mxGeometry width="50" height="50" relative="1" as="geometry">
            <mxPoint x="560" y="470" as="sourcePoint" />
            <mxPoint x="610" y="420" as="targetPoint" />
            <Array as="points" />
          </mxGeometry>
        </mxCell>
        <mxCell id="O7Gu6RK9Ui9EUtk0Qwvg-10" value="BUCK" style="rounded=0;whiteSpace=wrap;html=1;" vertex="1" parent="1">
          <mxGeometry x="120" y="51" width="120" height="60" as="geometry" />
        </mxCell>
        <mxCell id="O7Gu6RK9Ui9EUtk0Qwvg-12" value="LDO" style="rounded=0;whiteSpace=wrap;html=1;" vertex="1" parent="1">
          <mxGeometry x="310" y="51" width="120" height="60" as="geometry" />
        </mxCell>
        <mxCell id="O7Gu6RK9Ui9EUtk0Qwvg-13" value="RX" style="text;strokeColor=none;align=center;fillColor=none;html=1;verticalAlign=middle;whiteSpace=wrap;rounded=0;" vertex="1" parent="1">
          <mxGeometry x="740" y="220" width="30" height="20" as="geometry" />
        </mxCell>
        <mxCell id="O7Gu6RK9Ui9EUtk0Qwvg-14" value="TX" style="text;strokeColor=none;align=center;fillColor=none;html=1;verticalAlign=middle;whiteSpace=wrap;rounded=0;" vertex="1" parent="1">
          <mxGeometry x="760" y="220" width="30" height="20" as="geometry" />
        </mxCell>
        <mxCell id="O7Gu6RK9Ui9EUtk0Qwvg-15" value="TX" style="text;strokeColor=none;align=center;fillColor=none;html=1;verticalAlign=middle;whiteSpace=wrap;rounded=0;" vertex="1" parent="1">
          <mxGeometry x="740" y="280" width="30" height="20" as="geometry" />
        </mxCell>
        <mxCell id="O7Gu6RK9Ui9EUtk0Qwvg-16" value="RX" style="text;strokeColor=none;align=center;fillColor=none;html=1;verticalAlign=middle;whiteSpace=wrap;rounded=0;" vertex="1" parent="1">
          <mxGeometry x="760" y="280" width="30" height="20" as="geometry" />
        </mxCell>
        <mxCell id="O7Gu6RK9Ui9EUtk0Qwvg-17" value="UART" style="text;strokeColor=none;align=center;fillColor=none;html=1;verticalAlign=middle;whiteSpace=wrap;rounded=0;" vertex="1" parent="1">
          <mxGeometry x="710" y="250" width="60" height="30" as="geometry" />
        </mxCell>
        <mxCell id="O7Gu6RK9Ui9EUtk0Qwvg-18" value="UART" style="text;strokeColor=none;align=center;fillColor=none;html=1;verticalAlign=middle;whiteSpace=wrap;rounded=0;" vertex="1" parent="1">
          <mxGeometry x="760" y="250" width="60" height="30" as="geometry" />
        </mxCell>
        <mxCell id="O7Gu6RK9Ui9EUtk0Qwvg-21" value="UART" style="text;strokeColor=none;align=center;fillColor=none;html=1;verticalAlign=middle;whiteSpace=wrap;rounded=0;" vertex="1" parent="1">
          <mxGeometry x="570" y="542" width="60" height="30" as="geometry" />
        </mxCell>
        <mxCell id="O7Gu6RK9Ui9EUtk0Qwvg-22" value="UART" style="text;strokeColor=none;align=center;fillColor=none;html=1;verticalAlign=middle;whiteSpace=wrap;rounded=0;" vertex="1" parent="1">
          <mxGeometry x="590" y="580" width="60" height="30" as="geometry" />
        </mxCell>
        <mxCell id="O7Gu6RK9Ui9EUtk0Qwvg-23" value="" style="endArrow=none;html=1;rounded=0;exitX=0;exitY=0.5;exitDx=0;exitDy=0;" edge="1" parent="1" source="O7Gu6RK9Ui9EUtk0Qwvg-10">
          <mxGeometry width="50" height="50" relative="1" as="geometry">
            <mxPoint x="560" y="261" as="sourcePoint" />
            <mxPoint x="40" y="81" as="targetPoint" />
          </mxGeometry>
        </mxCell>
        <mxCell id="O7Gu6RK9Ui9EUtk0Qwvg-26" value="" style="endArrow=none;html=1;rounded=0;exitX=1;exitY=0.5;exitDx=0;exitDy=0;entryX=0;entryY=0.5;entryDx=0;entryDy=0;" edge="1" parent="1" source="O7Gu6RK9Ui9EUtk0Qwvg-10" target="O7Gu6RK9Ui9EUtk0Qwvg-12">
          <mxGeometry width="50" height="50" relative="1" as="geometry">
            <mxPoint x="560" y="261" as="sourcePoint" />
            <mxPoint x="610" y="211" as="targetPoint" />
          </mxGeometry>
        </mxCell>
        <mxCell id="O7Gu6RK9Ui9EUtk0Qwvg-27" value="" style="endArrow=classic;html=1;rounded=0;" edge="1" parent="1">
          <mxGeometry width="50" height="50" relative="1" as="geometry">
            <mxPoint x="260" y="81" as="sourcePoint" />
            <mxPoint x="260" y="161" as="targetPoint" />
          </mxGeometry>
        </mxCell>
        <mxCell id="O7Gu6RK9Ui9EUtk0Qwvg-28" value="" style="endArrow=classic;html=1;rounded=0;" edge="1" parent="1" source="O7Gu6RK9Ui9EUtk0Qwvg-39">
          <mxGeometry width="50" height="50" relative="1" as="geometry">
            <mxPoint x="290" y="81" as="sourcePoint" />
            <mxPoint x="290" y="131" as="targetPoint" />
          </mxGeometry>
        </mxCell>
        <mxCell id="O7Gu6RK9Ui9EUtk0Qwvg-29" value="" style="endArrow=classic;html=1;rounded=0;exitX=1;exitY=0.5;exitDx=0;exitDy=0;entryX=0;entryY=0.5;entryDx=0;entryDy=0;" edge="1" parent="1" source="O7Gu6RK9Ui9EUtk0Qwvg-12" target="O7Gu6RK9Ui9EUtk0Qwvg-46">
          <mxGeometry width="50" height="50" relative="1" as="geometry">
            <mxPoint x="560" y="430" as="sourcePoint" />
            <mxPoint x="570" y="100" as="targetPoint" />
          </mxGeometry>
        </mxCell>
        <mxCell id="O7Gu6RK9Ui9EUtk0Qwvg-30" value="" style="endArrow=classic;html=1;rounded=0;entryX=0;entryY=0.5;entryDx=0;entryDy=0;" edge="1" parent="1">
          <mxGeometry width="50" height="50" relative="1" as="geometry">
            <mxPoint x="440" y="81" as="sourcePoint" />
            <mxPoint x="525" y="111" as="targetPoint" />
            <Array as="points">
              <mxPoint x="440" y="111" />
            </Array>
          </mxGeometry>
        </mxCell>
        <mxCell id="O7Gu6RK9Ui9EUtk0Qwvg-31" value="3,3V" style="text;strokeColor=none;align=center;fillColor=none;html=1;verticalAlign=middle;whiteSpace=wrap;rounded=0;" vertex="1" parent="1">
          <mxGeometry x="440" y="41" width="60" height="30" as="geometry" />
        </mxCell>
        <mxCell id="O7Gu6RK9Ui9EUtk0Qwvg-36" value="5V" style="text;strokeColor=none;align=center;fillColor=none;html=1;verticalAlign=middle;whiteSpace=wrap;rounded=0;" vertex="1" parent="1">
          <mxGeometry x="240" y="41" width="60" height="30" as="geometry" />
        </mxCell>
        <mxCell id="O7Gu6RK9Ui9EUtk0Qwvg-41" style="edgeStyle=orthogonalEdgeStyle;rounded=0;orthogonalLoop=1;jettySize=auto;html=1;exitX=0.5;exitY=1;exitDx=0;exitDy=0;" edge="1" parent="1" source="O7Gu6RK9Ui9EUtk0Qwvg-37">
          <mxGeometry relative="1" as="geometry">
            <mxPoint x="90.14285714285734" y="161" as="targetPoint" />
          </mxGeometry>
        </mxCell>
        <mxCell id="O7Gu6RK9Ui9EUtk0Qwvg-37" value="7,2V" style="text;strokeColor=none;align=center;fillColor=none;html=1;verticalAlign=middle;whiteSpace=wrap;rounded=0;" vertex="1" parent="1">
          <mxGeometry x="60" y="51" width="60" height="30" as="geometry" />
        </mxCell>
        <mxCell id="O7Gu6RK9Ui9EUtk0Qwvg-38" value="Pi" style="text;strokeColor=none;align=center;fillColor=none;html=1;verticalAlign=middle;whiteSpace=wrap;rounded=0;" vertex="1" parent="1">
          <mxGeometry x="230" y="165" width="60" height="30" as="geometry" />
        </mxCell>
        <mxCell id="O7Gu6RK9Ui9EUtk0Qwvg-42" value="&lt;span style=&quot;color: rgb(0, 0, 0); font-family: Helvetica; font-size: 12px; font-style: normal; font-variant-ligatures: normal; font-variant-caps: normal; font-weight: 400; letter-spacing: normal; orphans: 2; text-align: center; text-indent: 0px; text-transform: none; widows: 2; word-spacing: 0px; -webkit-text-stroke-width: 0px; white-space: normal; background-color: rgb(251, 251, 251); text-decoration-thickness: initial; text-decoration-style: initial; text-decoration-color: initial; display: inline !important; float: none;&quot;&gt;TMC 2225&lt;/span&gt;" style="text;whiteSpace=wrap;html=1;" vertex="1" parent="1">
          <mxGeometry x="60" y="165" width="90" height="40" as="geometry" />
        </mxCell>
        <mxCell id="O7Gu6RK9Ui9EUtk0Qwvg-43" value="" style="endArrow=classic;html=1;rounded=0;entryX=0;entryY=0.5;entryDx=0;entryDy=0;" edge="1" parent="1">
          <mxGeometry width="50" height="50" relative="1" as="geometry">
            <mxPoint x="440" y="111" as="sourcePoint" />
            <mxPoint x="500" y="141" as="targetPoint" />
            <Array as="points">
              <mxPoint x="440" y="141" />
            </Array>
          </mxGeometry>
        </mxCell>
        <mxCell id="O7Gu6RK9Ui9EUtk0Qwvg-44" value="&lt;u&gt;&lt;b&gt;Alimentation&lt;/b&gt;&lt;/u&gt;" style="text;strokeColor=none;align=center;fillColor=none;html=1;verticalAlign=middle;whiteSpace=wrap;rounded=0;" vertex="1" parent="1">
          <mxGeometry x="205" y="20" width="130" height="30" as="geometry" />
        </mxCell>
        <mxCell id="O7Gu6RK9Ui9EUtk0Qwvg-46" value="STM32" style="text;strokeColor=none;align=center;fillColor=none;html=1;verticalAlign=middle;whiteSpace=wrap;rounded=0;" vertex="1" parent="1">
          <mxGeometry x="560" y="66" width="60" height="30" as="geometry" />
        </mxCell>
        <mxCell id="O7Gu6RK9Ui9EUtk0Qwvg-48" value="Afficheur" style="text;strokeColor=none;align=center;fillColor=none;html=1;verticalAlign=middle;whiteSpace=wrap;rounded=0;" vertex="1" parent="1">
          <mxGeometry x="525" y="100" width="60" height="30" as="geometry" />
        </mxCell>
        <mxCell id="O7Gu6RK9Ui9EUtk0Qwvg-49" value="Encodeur" style="text;strokeColor=none;align=center;fillColor=none;html=1;verticalAlign=middle;whiteSpace=wrap;rounded=0;" vertex="1" parent="1">
          <mxGeometry x="500" y="130" width="60" height="30" as="geometry" />
        </mxCell>
        <mxCell id="O7Gu6RK9Ui9EUtk0Qwvg-50" value="" style="endArrow=classic;html=1;rounded=0;" edge="1" parent="1">
          <mxGeometry width="50" height="50" relative="1" as="geometry">
            <mxPoint x="440" y="141" as="sourcePoint" />
            <mxPoint x="480" y="171" as="targetPoint" />
            <Array as="points">
              <mxPoint x="440" y="171" />
            </Array>
          </mxGeometry>
        </mxCell>
        <mxCell id="O7Gu6RK9Ui9EUtk0Qwvg-52" value="&lt;span style=&quot;color: rgb(0, 0, 0); font-family: Helvetica; font-size: 12px; font-style: normal; font-variant-ligatures: normal; font-variant-caps: normal; font-weight: 400; letter-spacing: normal; orphans: 2; text-align: center; text-indent: 0px; text-transform: none; widows: 2; word-spacing: 0px; -webkit-text-stroke-width: 0px; white-space: normal; background-color: rgb(251, 251, 251); text-decoration-thickness: initial; text-decoration-style: initial; text-decoration-color: initial; display: inline !important; float: none;&quot;&gt;TMC 2225&lt;/span&gt;" style="text;whiteSpace=wrap;html=1;" vertex="1" parent="1">
          <mxGeometry x="485" y="160" width="90" height="40" as="geometry" />
        </mxCell>
        <mxCell id="O7Gu6RK9Ui9EUtk0Qwvg-54" value="" style="endArrow=none;dashed=1;html=1;dashPattern=1 3;strokeWidth=2;rounded=0;" edge="1" parent="1">
          <mxGeometry width="50" height="50" relative="1" as="geometry">
            <mxPoint y="231" as="sourcePoint" />
            <mxPoint x="500" y="231" as="targetPoint" />
          </mxGeometry>
        </mxCell>
        <mxCell id="O7Gu6RK9Ui9EUtk0Qwvg-55" value="" style="endArrow=none;dashed=1;html=1;dashPattern=1 3;strokeWidth=2;rounded=0;" edge="1" parent="1">
          <mxGeometry width="50" height="50" relative="1" as="geometry">
            <mxPoint x="500" y="230" as="sourcePoint" />
            <mxPoint x="640" as="targetPoint" />
            <Array as="points">
              <mxPoint x="640" y="120" />
            </Array>
          </mxGeometry>
        </mxCell>
        <mxCell id="O7Gu6RK9Ui9EUtk0Qwvg-56" value="" style="endArrow=classic;html=1;rounded=0;" edge="1" parent="1">
          <mxGeometry width="50" height="50" relative="1" as="geometry">
            <mxPoint x="440" y="171" as="sourcePoint" />
            <mxPoint x="460" y="201" as="targetPoint" />
            <Array as="points">
              <mxPoint x="440" y="201" />
            </Array>
          </mxGeometry>
        </mxCell>
        <mxCell id="O7Gu6RK9Ui9EUtk0Qwvg-57" value="" style="endArrow=classic;html=1;rounded=0;" edge="1" parent="1" target="O7Gu6RK9Ui9EUtk0Qwvg-39">
          <mxGeometry width="50" height="50" relative="1" as="geometry">
            <mxPoint x="290" y="81" as="sourcePoint" />
            <mxPoint x="290" y="131" as="targetPoint" />
          </mxGeometry>
        </mxCell>
        <mxCell id="O7Gu6RK9Ui9EUtk0Qwvg-39" value="LIDAR" style="text;strokeColor=none;align=center;fillColor=none;html=1;verticalAlign=middle;whiteSpace=wrap;rounded=0;" vertex="1" parent="1">
          <mxGeometry x="260" y="130" width="60" height="30" as="geometry" />
        </mxCell>
        <mxCell id="O7Gu6RK9Ui9EUtk0Qwvg-58" value="&lt;span style=&quot;color: rgb(0, 0, 0); font-family: Helvetica; font-size: 12px; font-style: normal; font-variant-ligatures: normal; font-variant-caps: normal; font-weight: 400; letter-spacing: normal; orphans: 2; text-align: center; text-indent: 0px; text-transform: none; widows: 2; word-spacing: 0px; -webkit-text-stroke-width: 0px; white-space: normal; background-color: rgb(251, 251, 251); text-decoration-thickness: initial; text-decoration-style: initial; text-decoration-color: initial; display: inline !important; float: none;&quot;&gt;ST-LINK&lt;/span&gt;" style="text;whiteSpace=wrap;html=1;" vertex="1" parent="1">
          <mxGeometry x="460" y="190" width="80" height="40" as="geometry" />
        </mxCell>
      </root>
    </mxGraphModel>
  </diagram>
</mxfile>
